<?xml version="1.0" encoding="UTF-8"?>
<!DOCTYPE svg PUBLIC "-//W3C//DTD SVG 1.1//EN" "http://www.w3.org/Graphics/SVG/1.1/DTD/svg11.dtd">
<!-- Creator: CorelDRAW 2020 (64-Bit) -->
<svg xmlns="http://www.w3.org/2000/svg" xml:space="preserve" width="180mm" height="170mm" version="1.1" style="shape-rendering:geometricPrecision; text-rendering:geometricPrecision; image-rendering:optimizeQuality; fill-rule:evenodd; clip-rule:evenodd"
viewBox="0 0 18000 17000"
 xmlns:xlink="http://www.w3.org/1999/xlink"
 xmlns:xodm="http://www.corel.com/coreldraw/odm/2003">
 <defs>
  <style type="text/css">
   <![CDATA[
    .fil2 {fill:#00B4F0;fill-rule:nonzero}
    .fil1 {fill:#515151;fill-rule:nonzero}
    .fil0 {fill:#6F6F6F;fill-rule:nonzero}
   ]]>
  </style>
 </defs>
 <g id="Capa_x0020_1">
  <metadata id="CorelCorpID_0Corel-Layer"/>
  <g id="_2100223258304">
   <path class="fil0" d="M3027.02 9943.67l0 -5632.46c0,-1895.07 1532.5,-3431.31 3422.96,-3431.31l-2084.21 0.01c-1895.86,0 -3432.71,1536.87 -3432.71,3432.71l0 5629.65c0,1895.81 1536.87,3432.7 3432.71,3432.7l2084.21 0c-1890.46,0 -3422.96,-1536.24 -3422.96,-3431.3z"/>
   <path class="fil1" d="M13668.41 14061.52l-9337.69 0c-2270.97,0 -4118.52,-1847.59 -4118.52,-4118.53l0 -5630.36c0,-2271.36 1847.9,-4119.25 4119.25,-4119.25l9336.96 -0.01c2271.36,0 4119.25,1847.9 4119.25,4119.25l0 5629.65c0,2271.36 -1847.9,4119.25 -4119.25,4119.25zm-9336.96 -12495.06c-1514.24,0 -2746.17,1231.94 -2746.17,2746.17l0 5630.36c0,1513.83 1231.62,2745.45 2745.44,2745.45l9337.69 0c1514.24,0 2746.17,-1231.94 2746.17,-2746.17l0 -5629.65c0,-1514.24 -1231.93,-2746.17 -2746.17,-2746.17l-9336.96 0.01zm8650.43 14554.68c0,-379.17 -307.37,-686.54 -686.55,-686.54l-6590.8 0c-379.18,0 -686.55,307.37 -686.55,686.54 0,379.18 307.37,686.55 686.55,686.55l6590.8 0c379.18,0 686.55,-307.37 686.55,-686.55z"/>
   <path class="fil2" d="M12305.28 8392.4l-457.37 -274.41c89.66,-280.04 138.47,-578.17 138.47,-887.57 0,-309.39 -48.81,-607.52 -138.47,-887.56l457.37 -274.41c325.15,-195.08 430.57,-616.79 235.46,-941.94 -195.12,-325.16 -616.89,-430.53 -941.91,-235.48l-465.78 279.48c-373.37,-374.19 -847.7,-647.17 -1377.91,-775.54l0 -597.26c0,-379.18 -307.37,-686.55 -686.55,-686.55 -379.18,0 -686.55,307.37 -686.55,686.55l0 597.26c-542.3,131.33 -1025.72,414.36 -1402.88,801.74l-509.47 -305.68c-325.04,-195.05 -746.83,-89.67 -941.9,235.48 -195.12,325.14 -89.67,746.85 235.45,941.94l515.04 309.01c-82.7,269.95 -127.5,556.3 -127.5,852.96 0,296.67 44.8,583.02 127.5,852.97l-515.04 309.01c-325.14,195.08 -430.57,616.79 -235.48,941.9 128.77,214.54 356.15,333.42 589.36,333.42 120.21,0 242,-31.57 352.57,-97.94l509.47 -305.68c377.16,387.38 860.58,670.41 1402.88,801.74l0 597.3c0,379.18 307.37,686.55 686.55,686.55 379.18,0 686.55,-307.37 686.55,-686.55l0 -597.26c530.22,-128.37 1004.55,-401.35 1377.89,-775.54l465.82 279.48c110.6,66.35 232.36,97.94 352.57,97.94 233.22,0 460.63,-118.88 589.35,-333.42 195.08,-325.14 89.67,-746.85 -235.47,-941.94l-0.02 0zm-3236.69 382.75c-851.76,0 -1544.73,-692.95 -1544.73,-1544.73 0,-851.77 692.96,-1544.72 1544.73,-1544.72 851.77,0 1544.73,692.95 1544.73,1544.72 0,851.78 -692.96,1544.73 -1544.73,1544.73z"/>
  </g>
 </g>
</svg>
