<?xml version="1.0" encoding="UTF-8"?>
<!DOCTYPE svg PUBLIC "-//W3C//DTD SVG 1.1//EN" "http://www.w3.org/Graphics/SVG/1.1/DTD/svg11.dtd">
<!-- Creator: CorelDRAW 2020 (64-Bit) -->
<svg xmlns="http://www.w3.org/2000/svg" xml:space="preserve" width="180mm" height="170mm" version="1.1" style="shape-rendering:geometricPrecision; text-rendering:geometricPrecision; image-rendering:optimizeQuality; fill-rule:evenodd; clip-rule:evenodd"
viewBox="0 0 18000 17000"
 xmlns:xlink="http://www.w3.org/1999/xlink"
 xmlns:xodm="http://www.corel.com/coreldraw/odm/2003">
 <defs>
  <style type="text/css">
   <![CDATA[
    .fil2 {fill:#00B4F0;fill-rule:nonzero}
    .fil1 {fill:#515151;fill-rule:nonzero}
    .fil0 {fill:#6F6F6F;fill-rule:nonzero}
   ]]>
  </style>
 </defs>
 <g id="Capa_x0020_1">
  <metadata id="CorelCorpID_0Corel-Layer"/>
  <g id="_2100222429088">
   <g>
    <path class="fil0" d="M3261.4 14891.17c0,-720.29 583.93,-1304.21 1304.21,-1304.21l-1956.3 0c-720.29,0 -1304.21,583.92 -1304.21,1304.21 0,720.28 583.92,1304.2 1304.21,1304.2l1956.31 0.01c-720.28,0 -1304.21,-583.92 -1304.21,-1304.2l-0.01 -0.01z"/>
    <path class="fil1" d="M15390.56 11793.67c-360.16,0 -652.11,-291.95 -652.11,-652.11l0 -912.94c0,-360.16 291.95,-652.11 652.11,-652.11 360.15,0 652.1,291.95 652.1,652.11l0 912.94c0,360.16 -291.95,652.11 -652.1,652.11zm-12129.16 -652.1l0 -4792.98c0,-1438.28 1170.14,-2608.42 2608.43,-2608.42l1206.39 0c360.16,0 652.11,-291.95 652.11,-652.11 0,-360.16 -291.95,-652.11 -652.11,-652.11l-1206.39 0.01c-2157.43,0 -3912.63,1755.22 -3912.63,3912.63l0 4792.98c0,360.16 291.95,652.11 652.11,652.11 360.15,0 652.1,-291.95 652.1,-652.11l-0.01 0zm14085.47 3749.6c0,-1078.72 -877.6,-1956.32 -1956.31,-1956.32l-12781.25 0c-1078.72,0 -1956.32,877.6 -1956.32,1956.32 0,1078.71 877.6,1956.31 1956.32,1956.31l12781.25 0c1078.71,0 1956.31,-877.6 1956.31,-1956.31zm-1956.31 -652.1c359.56,0 652.1,292.53 652.1,652.11 0,359.58 -292.53,652.11 -652.1,652.11l-12781.25 -0.02c-359.57,0 -652.11,-292.52 -652.11,-652.1 0,-359.58 292.53,-652.11 652.11,-652.11l12781.25 0.01z"/>
    <path class="fil2" d="M9374.77 8761.39c-84.02,0 -168.73,-16.25 -249.44,-49.67 -243.69,-100.95 -402.54,-338.74 -402.54,-602.5l0.16 -3612.9c-10.2,-1152.88 433.2,-2241.21 1248.72,-3064.6 816.36,-824.19 1901.3,-1278.13 3055.02,-1278.13 1161.58,0 2248.1,451.05 3059.32,1270.13 813.59,821.46 1255.52,1913.82 1244.37,3075.88 -10.99,1144.93 -466.29,2217.68 -1282.03,3020.55 -813.28,800.46 -1891.46,1241.22 -3036.17,1241.22 -1.37,0 -2.81,0 -4.18,0 -673.13,0 -1316.76,-150.38 -1912.59,-447.01 -400.65,-199.48 -883.08,-120.27 -1200.46,197.1l-58.95 58.95c-124.75,124.71 -291.56,190.98 -461.23,190.98zm1257.61 -1860.57c354.49,0 711.8,80.51 1044.28,246.04 413.63,205.89 861.75,310.33 1331.96,310.33 0.85,-0.03 1.96,0 2.87,0 1647.13,0.1 2999,-1332.02 3014.71,-2970.07 7.79,-811.35 -300.07,-1573.3 -866.84,-2145.59 -564.39,-569.91 -1321.82,-883.74 -2132.67,-883.74 -802.97,0 -1558.83,316.7 -2128.38,891.73 -569.48,574.99 -878.9,1334.11 -871.18,2137.56 0,2.08 0.04,4.2 0.04,6.3l-0.13 2486.93c197.29,-52.72 400.85,-79.5 605.35,-79.5l-0.01 0.01z"/>
   </g>
  </g>
 </g>
</svg>
