<?xml version="1.0" encoding="UTF-8"?>
<!DOCTYPE svg PUBLIC "-//W3C//DTD SVG 1.1//EN" "http://www.w3.org/Graphics/SVG/1.1/DTD/svg11.dtd">
<!-- Creator: CorelDRAW 2020 (64-Bit) -->
<svg xmlns="http://www.w3.org/2000/svg" xml:space="preserve" width="180mm" height="170mm" version="1.1" style="shape-rendering:geometricPrecision; text-rendering:geometricPrecision; image-rendering:optimizeQuality; fill-rule:evenodd; clip-rule:evenodd"
viewBox="0 0 18000 17000"
 xmlns:xlink="http://www.w3.org/1999/xlink"
 xmlns:xodm="http://www.corel.com/coreldraw/odm/2003">
 <defs>
  <style type="text/css">
   <![CDATA[
    .fil2 {fill:#00B4F0;fill-rule:nonzero}
    .fil1 {fill:#515151;fill-rule:nonzero}
    .fil0 {fill:#6F6F6F;fill-rule:nonzero}
   ]]>
  </style>
 </defs>
 <g id="Capa_x0020_1">
  <metadata id="CorelCorpID_0Corel-Layer"/>
  <g id="_2100111769168">
   <g>
    <path class="fil0" d="M9910.19 15876.98c-278.97,186.76 -549.34,295.8 -910.26,295.8 -969.56,0 -1755.52,-785.98 -1755.52,-1755.52l0 -2665.78c0,-969.53 785.96,-1755.51 1755.52,-1755.51 360.92,0 631.29,109.04 910.26,295.8 -470.41,314.92 -780.23,851.06 -780.23,1459.71l0 2665.78c0,608.62 309.82,1144.79 780.23,1459.72zm5136.51 -1459.71l0 -5689.16c0,-608.62 309.81,-1144.77 780.22,-1459.72 -278.96,-186.76 -549.34,-295.8 -910.26,-295.8 -969.56,0 -1755.51,785.96 -1755.51,1755.52l0 5689.16c0,969.54 785.95,1755.52 1755.51,1755.52 360.92,0 631.3,-109.04 910.26,-295.8 -470.41,-314.92 -780.22,-851.1 -780.22,-1459.72zm-11833.47 0l0 -6176.8c0,-608.62 309.82,-1144.76 780.23,-1459.72 -278.96,-186.73 -549.34,-295.79 -910.26,-295.79 -969.53,0 -1755.51,785.95 -1755.51,1755.51l0 6176.8c0,969.54 785.98,1755.52 1755.51,1755.52 360.92,0 631.3,-109.04 910.26,-295.8 -470.41,-314.92 -780.23,-851.1 -780.23,-1459.72z"/>
    <path class="fil1" d="M3083.19 16822.97c-1326.53,0 -2405.71,-1079.18 -2405.71,-2405.71l0 -6176.8c0,-1326.53 1079.18,-2405.71 2405.71,-2405.71 1326.52,0 2405.71,1079.18 2405.71,2405.71l0 6176.8c0,1326.53 -1079.19,2405.71 -2405.71,2405.71zm0 -9687.83c-609.49,0 -1105.32,495.83 -1105.32,1105.32l0 6176.8c0,609.49 495.83,1105.32 1105.32,1105.32 609.49,0 1105.32,-495.83 1105.32,-1105.32l0 -6176.8c0,-609.45 -495.83,-1105.32 -1105.32,-1105.32zm5916.74 9687.83c-1326.53,0 -2405.71,-1079.18 -2405.71,-2405.71l0 -2665.78c0,-1326.52 1079.18,-2405.7 2405.71,-2405.7 1326.52,0 2405.7,1079.18 2405.7,2405.7l0 2665.78c0,1326.53 -1079.18,2405.71 -2405.7,2405.71zm0 -6176.8c-609.49,0 -1105.32,495.83 -1105.32,1105.31l0 2665.78c0,609.49 495.83,1105.32 1105.32,1105.32 609.48,0 1105.31,-495.83 1105.31,-1105.32l0 -2665.78c0,-609.45 -495.83,-1105.31 -1105.31,-1105.31zm5916.73 6176.8c-1326.52,0 -2405.71,-1079.18 -2405.71,-2405.71l0 -5689.17c0,-1326.52 1079.19,-2405.7 2405.71,-2405.7 1326.53,0 2405.71,1079.18 2405.71,2405.7l0 5689.17c0,1326.53 -1079.18,2405.71 -2405.71,2405.71zm0 -9200.2c-609.49,0 -1105.32,495.84 -1105.32,1105.32l0 5689.17c0,609.49 495.83,1105.32 1105.32,1105.32 609.49,0 1105.32,-495.83 1105.32,-1105.32l0 -5689.17c0,-609.45 -495.83,-1105.32 -1105.32,-1105.32z"/>
    <path class="fil2" d="M9614.78 8108.8c-495.93,0 -994.21,-160.63 -1409.58,-489.13 -11.61,-9.21 -4161.97,-3778.74 -4161.97,-3778.74 -369.38,-280.59 -882.18,-263.13 -1231.72,42.74l-1026.58 1015.44c-255.33,252.54 -667.03,250.27 -919.47,-5 -252.56,-255.32 -250.29,-667 5,-919.5 0,0 1053.73,-1041.93 1061.37,-1048.82 827.14,-743.92 2060.81,-782.96 2933.36,-92.92 11.61,9.2 4161.94,3778.74 4161.94,3778.74 401.88,305.14 975.68,252.2 1314.59,-124.42 4.07,-4.52 8.2,-8.97 12.39,-13.35l3604 -3785.67c247.6,-260.08 659.13,-270.22 919.21,-22.6 260.08,247.6 270.22,659.13 22.59,919.25l-3598.15 3779.52c-446.23,491.51 -1064.75,744.44 -1686.99,744.47l0.01 -0.01zm7707.58 -4224.61l0 -1755.51c0,-1075.55 -875.03,-1950.58 -1950.57,-1950.58l-1755.52 0c-359.1,0 -650.19,291.1 -650.19,650.2 0,359.1 291.09,650.19 650.19,650.19l1755.52 -0.01c358.51,0 650.19,291.67 650.19,650.2l0 1755.51c0,359.1 291.09,650.19 650.2,650.19 359.1,0 650.19,-291.09 650.19,-650.19l-0.01 0z"/>
   </g>
  </g>
 </g>
</svg>
